<?xml version="1.0" encoding="UTF-8"?>
<svg width="300px" height="144px" viewBox="0 0 300 144" version="1.1" xmlns="http://www.w3.org/2000/svg" xmlns:xlink="http://www.w3.org/1999/xlink">
    <!-- Generator: Sketch 44.1 (41455) - http://www.bohemiancoding.com/sketch -->
    <title>Slice</title>
    <desc>Created with Sketch.</desc>
    <defs></defs>
    <g id="Page-1" stroke="none" stroke-width="1" fill="none" fill-rule="evenodd">
        <g id="feedly" transform="translate(0.000000, 25.000000)" fill-rule="nonzero" fill="#2BB24C">
            <path d="M61.7969649,3.44510553 C57.2252069,-1.14836851 49.7506242,-1.14836851 45.1814103,3.44510553 L3.42500237,45.4181025 C-1.14166746,50.0141341 -1.14166746,57.5360757 3.42500237,62.1244347 L33.221569,92.0792053 C35.2975594,93.895111 38.0070319,95 40.9760035,95 L66.0049157,95 C69.2664593,95 72.2201662,93.6649258 74.3521269,91.5216454 L103.571181,62.1500107 C108.14294,57.5565368 108.14294,50.0320374 103.571181,45.4436787 L61.7969649,3.44510553 L61.7969649,3.44510553 Z M60.6343086,80.3153845 L56.4670635,84.5128204 C56.1617707,84.823077 55.739449,85.0128205 55.2713336,85.0128205 L51.7044973,85.0128205 C51.2821758,85.0128205 50.8954717,84.8538461 50.5978114,84.5948719 L46.3491548,80.3102564 C45.6978637,79.6564102 45.6978637,78.576923 46.3491548,77.9205129 L52.3049063,71.9179487 C52.9561975,71.2564103 54.0247217,71.2564103 54.6760128,71.9179487 L60.6343086,77.923077 C61.2881438,78.5794873 61.2881438,79.6564102 60.6343086,80.3153845 L60.6343086,80.3153845 Z M60.6343086,55.123077 L43.97296,71.9230769 C43.665123,72.2307693 43.2453456,72.4153847 42.7797745,72.4153847 L39.2078498,72.4153847 C38.7855284,72.4153847 38.39628,72.2615386 38.0986199,72.0025642 L33.8525071,67.7205127 C33.2012163,67.0615384 33.2012163,65.9846155 33.8525071,65.3256409 L52.3049063,46.7282051 C52.9561975,46.0717948 54.0247217,46.0717948 54.6760128,46.7282051 L60.6343086,52.7410255 C61.2881438,53.3948718 61.2881438,54.4666667 60.6343086,55.123077 L60.6343086,55.123077 Z M60.6343086,29.9384615 L31.4763126,59.3256409 C31.1710199,59.6358975 30.7486982,59.823077 30.2831268,59.823077 L26.7137464,59.823077 C26.2914249,59.823077 25.9021768,59.6666666 25.6070605,59.4076924 L21.3558598,55.1205129 C20.7045687,54.4666667 20.7045687,53.3897435 21.3558598,52.7358975 L52.3049063,21.5435898 C52.9561975,20.8846154 54.0221777,20.8846154 54.6760128,21.5435898 L60.6343086,27.548718 C61.2881438,28.2051283 61.2881438,29.2846155 60.6343086,29.9384615 L60.6343086,29.9384615 Z" id="Imported-Layers-Copy"></path>
        </g>
    </g>
</svg>