<?xml version="1.0" encoding="UTF-8"?>
<svg width="114px" height="100px" viewBox="0 0 114 100" version="1.1" xmlns="http://www.w3.org/2000/svg" xmlns:xlink="http://www.w3.org/1999/xlink">
    <!-- Generator: Sketch 44.1 (41455) - http://www.bohemiancoding.com/sketch -->
    <title>feedly</title>
    <desc>Created with Sketch.</desc>
    <defs></defs>
    <g id="Page-1" stroke="none" stroke-width="1" fill="none" fill-rule="evenodd">
        <g id="feedly" fill-rule="nonzero" fill="#2BB24C">
            <path d="M65.3107935,3.62642687 C60.4790815,-1.20880896 52.5794875,-1.20880896 47.7504642,3.62642687 L3.61975096,47.808529 C-1.20658365,52.6464569 -1.20658365,60.5642903 3.61975096,65.3941418 L35.110576,96.9254792 C37.304609,98.836959 40.1681445,100 43.3059343,100 L69.7580121,100 C73.2050099,100 76.3266671,98.5946587 78.5798529,96.3385741 L109.460328,65.4210638 C114.29204,60.5858282 114.29204,52.6653026 109.460328,47.8354513 L65.3107935,3.62642687 L65.3107935,3.62642687 Z M64.0820276,84.54251 L59.6778293,88.9608636 C59.3551774,89.2874495 58.9088421,89.4871795 58.4141092,89.4871795 L54.6444595,89.4871795 C54.1981245,89.4871795 53.7894321,89.3198379 53.4748465,89.0472336 L48.9846077,84.5371121 C48.2962836,83.8488528 48.2962836,82.7125505 48.9846077,82.0215926 L55.2790084,75.7031038 C55.9673324,75.0067477 57.0966139,75.0067477 57.784938,75.7031038 L64.0820276,82.0242915 C64.7730404,82.7152497 64.7730404,83.8488528 64.0820276,84.54251 L64.0820276,84.54251 Z M64.0820276,58.0242915 L46.4733004,75.7085021 C46.1479595,76.0323887 45.7043132,76.2267208 45.2122693,76.2267208 L41.4372419,76.2267208 C40.9909069,76.2267208 40.5795256,76.0647774 40.2649402,75.7921728 L35.7773898,71.2847503 C35.089066,70.5910931 35.089066,69.45749 35.7773898,68.7638326 L55.2790084,49.1875844 C55.9673324,48.4966262 57.0966139,48.4966262 57.784938,49.1875844 L64.0820276,55.516869 C64.7730404,56.2051282 64.7730404,57.3333333 64.0820276,58.0242915 L64.0820276,58.0242915 Z M64.0820276,31.51417 L33.2660828,62.4480431 C32.9434309,62.774629 32.4970956,62.97166 32.0050514,62.97166 L28.232713,62.97166 C27.786378,62.97166 27.3749969,62.8070174 27.0631,62.5344131 L22.5701723,58.0215926 C21.8818483,57.3333333 21.8818483,56.19973 22.5701723,55.511471 L55.2790084,22.6774629 C55.9673324,21.9838057 57.0939252,21.9838057 57.784938,22.6774629 L64.0820276,28.9986505 C64.7730404,29.6896087 64.7730404,30.825911 64.0820276,31.51417 L64.0820276,31.51417 Z" id="Imported-Layers-Copy"></path>
        </g>
    </g>
</svg>