<?xml version="1.0" encoding="UTF-8" standalone="no"?>
<svg width="300px" height="145px" viewBox="0 0 300 145" version="1.1" xmlns="http://www.w3.org/2000/svg" xmlns:xlink="http://www.w3.org/1999/xlink" xmlns:sketch="http://www.bohemiancoding.com/sketch/ns">
    <!-- Generator: Sketch 3.0.4 (8053) - http://www.bohemiancoding.com/sketch -->
    <title>jetbrains</title>
    <desc>Created with Sketch.</desc>
    <defs></defs>
    <g id="Page-1" stroke="none" stroke-width="1" fill="none" fill-rule="evenodd" sketch:type="MSPage">
        <g id="jetbrains" sketch:type="MSLayerGroup" transform="translate(2.500000, 42.500000)">
            <path d="M277.932505,33.2644172 C272.067874,29.9662831 269.773019,28.69777 266.203243,28.69777 C262.888452,28.69777 261.358548,30.2199858 261.358548,32.757012 C261.358548,40.3680907 279.717393,38.3384697 279.717393,55.8439507 C279.717393,65.4846504 274.36273,71.3198107 265.183308,71.3198107 C259.573661,71.3198107 257.023821,69.0364871 252.944078,66.2457583 L252.944078,55.3365455 C258.808709,60.1568953 261.103564,61.9328137 265.693275,61.9328137 C269.008067,61.9328137 270.537971,60.1568953 270.537971,57.1124638 C270.537971,48.7402773 252.43411,52.0384114 252.43411,33.7718225 C252.43411,24.8922307 256.003885,19.310773 265.438292,19.310773 C270.028003,19.310773 272.832826,20.5792861 277.932505,23.3700149 L277.932505,33.2644172 L277.932505,33.2644172 Z" id="Shape" fill="#136BA2" sketch:type="MSShapeGroup"></path>
            <path d="M136.161429,19.8181782 C144.575899,19.8181782 148.145675,26.9218517 148.145675,34.2792277 C148.145675,39.8606854 145.850819,43.9199274 141.261108,46.7106563 C139.986188,47.2180615 139.221236,47.4717641 138.201301,47.7254668 L152.225418,70.5587029 L142.281044,70.5587029 L129.276862,49.7550878 L129.276862,70.3050002 L120.352424,70.3050002 L120.352424,19.5644756 L136.161429,19.5644756 L136.161429,19.8181782 L136.161429,19.8181782 Z M129.276862,40.6217933 L133.356606,40.6217933 C136.161429,40.6217933 138.966253,39.0995776 138.966253,34.786633 C138.966253,30.9810936 136.926381,28.9514726 133.101622,28.9514726 L129.276862,28.9514726 L129.276862,40.6217933 L129.276862,40.6217933 Z" id="Shape" fill="#136BA2" sketch:type="MSShapeGroup"></path>
            <path d="M195.062721,70.5587029 L185.373331,70.5587029 L182.05854,60.4105979 L166.249535,60.4105979 L163.189728,70.5587029 L153.755322,70.5587029 L168.799375,19.8181782 L178.233781,19.8181782 L195.062721,70.5587029 L195.062721,70.5587029 Z M173.64407,31.9959041 L168.799375,51.7847087 L178.998733,51.7847087 L173.64407,31.9959041 L173.64407,31.9959041 Z" id="Shape" fill="#136BA2" sketch:type="MSShapeGroup"></path>
            <path d="M206.791983,70.5587029 L197.867545,70.5587029 L197.867545,19.8181782 L206.791983,19.8181782 L206.791983,70.5587029 L206.791983,70.5587029 Z" id="Shape" fill="#136BA2" sketch:type="MSShapeGroup"></path>
            <path d="M248.354367,70.5587029 L240.959832,70.5587029 L222.09102,38.0847671 L222.09102,70.5587029 L213.166582,70.5587029 L213.166582,19.8181782 L221.326068,19.8181782 L239.429929,50.7698982 L239.429929,19.8181782 L248.354367,19.8181782 L248.354367,70.5587029 L248.354367,70.5587029 L248.354367,70.5587029 Z" id="Shape" fill="#136BA2" sketch:type="MSShapeGroup"></path>
            <path d="M107.603227,42.6514143 C111.173002,40.6217933 113.212874,36.816254 113.212874,32.5033094 C113.212874,30.2199858 112.702906,27.9366622 111.68297,25.6533385 C108.368179,28.4440674 104.798403,31.7422015 103.778467,32.757012 C104.033451,33.2644172 104.033451,34.0255251 104.033451,34.5329304 C104.033451,37.3236592 102.503548,40.1143881 98.9337724,40.1143881 L96.128949,40.1143881 L96.128949,37.5773618 L96.128949,29.4588779 L96.128949,28.1903648 L106.838275,21.340394 C105.308371,20.5792861 103.523484,20.3255835 101.228628,20.3255835 L87.2045108,20.3255835 L87.2045108,71.0661081 L102.248564,71.0661081 C114.232809,71.0661081 116.782649,61.9328137 116.782649,56.0976533 C116.272681,49.7550878 113.467858,44.4273327 107.603227,42.6514143 L107.603227,42.6514143 Z M99.1887564,61.1717058 L95.8739651,61.1717058 L95.8739651,49.2476825 L100.71866,49.2476825 C104.288435,49.2476825 106.838275,51.2773035 106.838275,54.8291402 C106.838275,59.3957874 104.798403,61.1717058 99.1887564,61.1717058 L99.1887564,61.1717058 Z" id="Shape" fill="#136BA2" sketch:type="MSShapeGroup"></path>
            <path d="M120.352424,13.9830179 C119.842456,13.7293153 113.212874,17.7885572 109.13313,20.5792861 L107.603227,21.5940966 L96.8939009,28.4440674 L96.8939009,36.3088487 C99.1887564,34.786633 100.973644,33.2644172 102.248564,31.9959041 L110.153066,25.3996359 C110.153066,25.3996359 113.977825,21.8477992 116.272681,19.8181782 L117.037633,19.0570703 C117.547601,18.5496651 118.057569,18.2959625 118.057569,17.7885572 L118.057569,17.7885572 C118.057569,17.281152 120.352424,13.9830179 120.352424,13.9830179 L120.352424,13.9830179 Z" id="Shape" fill="#FA930D" sketch:type="MSShapeGroup"></path>
            <path d="M79.0450244,46.9643589 L85.4196231,42.6514143 L85.4196231,34.786633 L79.8099762,38.5921723 C79.8099762,38.5921723 74.7102972,41.8903064 72.9254096,43.1588195 C73.1803935,42.1440091 73.1803935,41.1291986 73.1803935,41.1291986 C74.2003293,34.5329304 74.9652812,27.9366622 74.9652812,23.6237176 C74.9652812,21.5940966 74.7102972,19.8181782 74.2003293,19.0570703 C73.9453454,18.5496651 73.4353775,18.0422598 72.6704256,18.0422598 C71.9054738,17.7885572 70.885538,18.0422598 69.8656022,18.8033677 C66.8057948,20.8329887 65.530875,26.668149 65.530875,36.816254 C65.530875,40.1143881 65.785859,43.6662248 66.0408429,47.9791694 C65.785859,48.232872 64.0009714,49.7550878 64.0009714,49.7550878 L61.1961479,52.292114 C61.1961479,52.292114 61.1961479,52.292114 61.1961479,52.5458166 C58.3913245,54.8291402 56.8614208,56.351356 56.0964689,56.6050586 C55.3315171,56.8587612 54.5665652,56.8587612 54.0565973,56.8587612 C57.6263726,54.0680323 60.68618,48.4865746 60.68618,44.9347379 L60.68618,43.9199274 C60.1762121,41.6366038 58.9012924,39.8606854 57.1164047,38.845875 C55.586501,38.0847671 53.5466294,37.8310645 51.2517739,38.845875 L50.486822,39.0995776 C46.4070788,40.8754959 34.1678492,47.7254668 30.34309,50.0087904 C30.8530579,44.6810353 32.8929295,20.0718808 33.6578813,7.13304705 C34.1678492,-1.23913952 33.6578813,3.83491295 33.6578813,2.31269721 C33.6578813,-3.77616575 26.0083629,2.31269721 21.6736357,6.6256418 C19.8887481,8.40156017 14.2791012,13.4756126 16.3189728,17.281152 C18.1038604,21.0866913 20.398716,19.5644756 21.4186518,26.9218517 C23.4585234,39.6069828 21.9286197,52.292114 21.9286197,53.3069245 C21.1636678,53.5606271 16.0639888,56.0976533 16.0639888,56.0976533 C6.88456664,60.4105979 0,63.4550294 0,68.7827845 C0,69.5438924 0.25498395,70.5587029 0.509967899,71.3198107 C8.15948639,91.1086153 18.3588444,101.510423 22.4385876,100.495612 C28.3032184,98.9733967 28.5582024,91.1086153 28.8131863,79.6919973 C29.0681703,73.856837 29.3231542,67.2605688 30.0881061,59.9031927 C30.598074,59.6494901 40.542448,52.292114 42.3273356,51.0236009 C41.5623838,52.7995192 41.5623838,54.5754376 41.5623838,55.5902481 C41.5623838,57.8735717 41.8173677,59.9031927 42.3273356,60.9180032 C43.0922875,62.6939215 43.8572393,63.708732 45.642127,64.7235425 C47.9369825,65.738353 49.9768541,66.2457583 53.8016134,64.4698399 C55.586501,63.708732 58.6463084,61.679111 61.9610998,58.8883822 C62.7260516,60.1568953 65.530875,64.9772451 65.530875,64.9772451 L68.3356985,69.5438924 C69.6106182,71.5735133 71.3955059,72.3346212 73.6903614,71.0661081 C75.2202651,70.3050002 76.4951849,69.5438924 76.7501688,68.5290819 L76.7501688,67.767974 C76.7501688,67.0068661 76.4951849,66.4994609 76.2402009,65.9920556 C73.1803935,60.6643006 72.9254096,55.8439507 72.9254096,52.292114 L72.9254096,51.5310061 C73.4353775,50.7698982 79.0450244,46.9643589 79.0450244,46.9643589 L79.0450244,46.9643589 Z M18.8688123,84.2586445 C16.5739567,82.2290235 15.299037,80.7068078 13.5141493,76.3938632 C10.4543419,69.2901897 14.7890691,67.0068661 22.1836036,62.6939215 C21.1636678,70.3050002 20.6536999,86.0345629 18.8688123,84.2586445 L18.8688123,84.2586445 Z M48.7019344,53.5606271 C48.7019344,50.7698982 47.9369825,47.4717641 51.5067578,45.4421432 C52.7816776,44.6810353 53.5466294,45.1884405 54.0565973,45.6958458 C55.0765331,46.4569537 53.0366615,50.7698982 48.7019344,53.5606271 L48.7019344,53.5606271 Z" id="Shape" fill="#FA930D" sketch:type="MSShapeGroup"></path>
        </g>
    </g>
</svg>