<?xml version="1.0" encoding="UTF-8" standalone="no"?>
<svg width="300px" height="145px" viewBox="0 0 300 145" version="1.1" xmlns="http://www.w3.org/2000/svg" xmlns:xlink="http://www.w3.org/1999/xlink" xmlns:sketch="http://www.bohemiancoding.com/sketch/ns">
    <!-- Generator: Sketch 3.0.4 (8053) - http://www.bohemiancoding.com/sketch -->
    <title>kaffemik</title>
    <desc>Created with Sketch.</desc>
    <defs></defs>
    <g id="Page-1" stroke="none" stroke-width="1" fill="none" fill-rule="evenodd" sketch:type="MSPage">
        <g id="kaffemik" sketch:type="MSLayerGroup" transform="translate(2.349515, 55.358173)" fill="#000000">
            <g id="Group" transform="translate(-0.302640, 0.000000)" sketch:type="MSShapeGroup">
                <path d="M14.6587936,43.9487914 L11.2211119,47.1415131 L11.2211119,55.6771568 C11.2211119,56.4590478 10.6049237,57.0780449 9.82658067,57.0780449 L0.0324309593,57.0780449 C-0.745912064,57.0780449 -1.36210029,56.4590478 -1.36210029,55.6771568 L-1.36210029,5.24518563 C-1.36210029,4.4632946 -0.745912064,3.84429754 0.0324309593,3.84429754 L9.82658067,3.84429754 C10.6049237,3.84429754 11.2211119,4.4632946 11.2211119,5.24518563 L11.2211119,33.4909989 L21.5665879,22.2187366 C22.5070858,21.2087941 23.0584121,20.9807425 24.2907885,20.9807425 L35.8037791,20.9807425 C37.3604651,20.9807425 37.7496366,22.3816306 36.7442769,23.3264156 L23.3827217,35.836672 L37.1658794,54.9278446 C37.8793605,55.8726295 37.7172057,57.1106237 36.0632267,57.1106237 L24.7772529,57.1106237 C23.5448765,57.1106237 22.9935501,56.7196782 22.3773619,55.7097356 L14.6587936,43.9487914 L14.6587936,43.9487914 Z" id="Shape"></path>
                <path d="M43.9439499,32.6113715 C43.003452,33.0674746 42.3224019,33.0674746 41.9332304,32.1552684 L39.2090298,26.1281918 C38.8198583,25.3463007 38.8847202,24.8901976 39.7603561,24.3363582 C43.2628997,22.1535791 48.7761628,20.3617455 54.7758903,20.3617455 C58.4405887,20.3617455 63.3376635,21.0784789 66.5158975,24.4992521 C68.526617,26.6820313 69.6941315,29.5163862 69.6941315,33.947102 L69.6941315,55.6771568 C69.6941315,56.4590478 69.0779433,57.0780449 68.2996003,57.0780449 L59.802689,57.0780449 C59.0243459,57.0780449 58.4081577,56.4590478 58.4081577,55.6771568 L58.4081577,55.3839476 L58.0838481,55.3839476 C55.0353379,57.4038328 52.4732922,57.8925147 49.1329033,57.8925147 C45.8573765,57.8925147 43.068314,56.7848357 41.0251635,54.8301082 C39.014444,52.8753806 37.7496366,49.9758681 37.7496366,46.5550948 C37.7496366,42.0266426 40.3116824,39.290024 43.9115189,37.563348 C47.8680959,35.673778 53.0894804,34.9896234 57.0784884,34.5986779 L57.0784884,34.0448384 C57.0784884,32.8068443 56.9163336,31.7643229 56.3650073,31.0801683 C55.813681,30.2982772 54.6461664,29.8421741 53.0894804,29.8421741 C49.7815225,29.8095954 46.5059956,31.2104834 43.9439499,32.6113715 L43.9439499,32.6113715 Z M57.0784884,47.7930889 L57.0784884,42.6456397 C56.3650073,42.6456397 53.9651163,42.8085337 52.570585,43.2646368 C51.013899,43.7207399 49.7815225,44.6655248 49.7815225,46.1641493 C49.7815225,47.1089343 50.1058321,47.7930889 50.7220203,48.2817708 C51.3382086,48.7378739 52.2138445,48.9985043 53.2840661,48.9985043 C54.3542878,48.9985043 55.748819,48.6401376 57.0784884,47.7930889 L57.0784884,47.7930889 Z" id="Shape"></path>
                <path d="M90.2553597,30.9172743 L90.2553597,55.7097356 C90.2553597,56.4916266 89.6391715,57.1106237 88.8608285,57.1106237 L79.0666788,57.1106237 C78.2883358,57.1106237 77.6721475,56.4916266 77.6721475,55.7097356 L77.6721475,30.9172743 L74.0074491,30.9172743 C73.2291061,30.9172743 72.6129179,30.2982772 72.6129179,29.5163862 L72.6129179,22.4142094 C72.6129179,21.6323184 73.2291061,21.0133213 74.0074491,21.0133213 L77.6721475,21.0133213 L77.6721475,18.4395967 C77.6721475,14.464984 78.6126453,10.2948985 81.2395531,7.49312233 C83.1854106,5.3755008 86.071766,4.0397703 89.8661882,4.0397703 C94.6011083,4.0397703 98.3630996,5.21260684 101.217024,7.33022837 C101.833212,7.78633146 102.060229,8.5030649 101.76835,9.12206197 L98.8819949,15.3771902 C98.4928234,16.1590812 97.6496185,16.1590812 96.8712754,15.7681357 C95.5416061,15.0514022 94.6984012,14.6604567 93.206577,14.6604567 C92.0390625,14.6604567 91.3255814,15.1165598 90.871548,15.8984509 C90.4175145,16.7454995 90.2553597,17.918336 90.2553597,19.3518029 L90.2553597,20.9807425 L101.995367,20.9807425 L101.995367,17.6251269 C101.995367,13.6505142 103.000727,9.4152711 105.82222,6.61349493 C107.83294,4.59360978 110.88145,3.25787927 115.097475,3.25787927 C120.091842,3.25787927 124.988917,4.65876736 127.875273,6.77638889 C128.491461,7.23249199 128.718477,7.94922543 128.426599,8.56822249 L125.248365,15.2794538 C124.859193,15.9961872 124.015988,16.1265024 123.237645,15.6703993 C121.226926,14.5627204 119.799964,13.8785657 118.016261,13.8785657 C116.783884,13.8785657 116.005541,14.2695112 115.454215,15.0514022 C114.902889,15.8332933 114.675872,17.0061298 114.675872,18.5699119 L114.675872,20.9807425 L121.129633,20.9807425 C121.907976,20.9807425 122.524164,21.5997396 122.524164,22.3816306 L122.524164,29.4838074 C122.524164,30.2656985 121.907976,30.8846955 121.129633,30.8846955 L114.675872,30.8846955 L114.675872,55.6771568 C114.675872,56.4590478 114.059684,57.0780449 113.281341,57.0780449 L103.487191,57.0780449 C102.708848,57.0780449 102.09266,56.4590478 102.09266,55.6771568 L102.09266,30.8846955 L90.2553597,30.8846955 L90.2553597,30.9172743 Z" id="Shape"></path>
                <path d="M151.420149,45.903519 C152.360647,45.3496795 153.041697,45.6754674 153.430868,46.2944645 L156.706395,52.3866987 C157.030705,53.0056958 156.771257,53.7224292 156.155069,54.1785323 C153.268714,56.2961538 147.820312,57.8599359 142.696221,57.8599359 C136.631632,57.8599359 131.799419,56.0681023 128.45903,52.8428018 C124.891624,49.4871862 122.945767,44.4700521 122.945767,38.6058694 C122.945767,33.0674746 125.118641,28.4412861 128.394168,25.150828 C131.50754,22.0884215 135.950581,20.2965879 141.561137,20.2965879 C148.40407,20.2965879 153.074128,22.8051549 155.895621,26.7797676 C158.392805,30.4611712 159.333303,35.3805689 158.781977,40.9189637 C158.717115,41.7008547 158.165789,42.3198518 157.387445,42.3198518 L136.210029,42.3198518 C136.599201,44.0465278 137.312682,45.2845219 138.318041,46.2293069 C139.550418,47.4021434 141.496275,48.0211405 143.766443,48.0211405 C146.587936,48.1188769 148.922965,47.4021434 151.420149,45.903519 L151.420149,45.903519 Z M146.750091,34.8267294 C146.587936,33.5887353 146.360919,32.6439503 145.517714,31.6340077 C144.674509,30.6240652 143.34484,30.0702257 141.625999,30.0702257 C140.069313,30.0702257 138.512627,30.5263288 137.669422,31.4711138 C136.891079,32.3181624 136.437046,33.4258413 136.177598,34.8267294 L146.750091,34.8267294 L146.750091,34.8267294 Z" id="Shape"></path>
                <path d="M174.316406,23.098364 C174.932594,22.5445246 175.710937,22.0884215 176.489281,21.7626335 C178.272983,20.9155849 180.218841,20.426903 182.391715,20.426903 C184.499727,20.426903 186.60774,20.752691 188.553597,21.4368456 C190.564317,22.2187366 192.121003,23.3264156 193.223656,24.4992521 C194.456032,23.4893096 196.110011,22.3816306 198.055868,21.5997396 C199.839571,20.8830061 202.012445,20.426903 204.606922,20.426903 C208.433775,20.426903 212.163336,21.4368456 214.887536,24.0105702 C217.287427,26.1933494 218.844113,29.8095954 218.844113,35.0222022 L218.844113,55.6771568 C218.844113,56.4590478 218.227925,57.0780449 217.449582,57.0780449 L207.655432,57.0780449 C206.877089,57.0780449 206.260901,56.4590478 206.260901,55.6771568 L206.260901,37.8565572 C206.260901,36.0647236 206.098746,33.7842081 205.158249,32.38332 C204.606922,31.5362714 203.601562,30.656644 201.590843,30.656644 C199.482831,30.656644 198.412609,31.8294805 197.76399,33.0674746 C196.920785,34.8593082 196.661337,37.3027177 196.661337,40.0393363 L196.661337,55.6771568 C196.661337,56.4590478 196.045149,57.0780449 195.266806,57.0780449 L185.472656,57.0780449 C184.694313,57.0780449 184.078125,56.4590478 184.078125,55.6771568 L184.078125,37.8565572 C184.078125,36.0647236 183.91597,33.7842081 182.975472,32.38332 C182.424146,31.5362714 181.418786,30.656644 179.408067,30.656644 C177.300055,30.656644 176.229833,31.8294805 175.581214,33.0674746 C174.802871,34.6312567 174.478561,36.5859842 174.478561,38.9968149 L174.478561,55.644578 C174.478561,56.426469 173.862373,57.0454661 173.08403,57.0454661 L163.28988,57.0454661 C162.511537,57.0454661 161.895349,56.426469 161.895349,55.644578 L161.895349,22.3816306 C161.895349,21.5997396 162.511537,20.9807425 163.28988,20.9807425 L172.694858,20.9807425 C173.473201,20.9807425 174.08939,21.5997396 174.08939,22.3816306 L174.08939,23.098364 L174.316406,23.098364 L174.316406,23.098364 Z" id="Shape"></path>
                <path d="M222.573674,5.73386752 C222.573674,1.75925481 225.751908,-1.46604567 229.740916,-1.46604567 C233.729924,-1.46604567 236.908158,1.72667601 236.908158,5.73386752 C236.908158,9.74105903 233.729924,12.9337807 229.740916,12.9337807 C225.751908,12.9337807 222.573674,9.70848024 222.573674,5.73386752 L222.573674,5.73386752 Z M224.81141,20.9807425 L234.60556,20.9807425 C235.383903,20.9807425 236.000091,21.5997396 236.000091,22.3816306 L236.000091,55.6771568 C236.000091,56.4590478 235.383903,57.0780449 234.60556,57.0780449 L224.81141,57.0780449 C224.033067,57.0780449 223.416879,56.4590478 223.416879,55.6771568 L223.416879,22.3816306 C223.416879,21.5997396 224.033067,20.9807425 224.81141,20.9807425 L224.81141,20.9807425 Z" id="Shape"></path>
                <path d="M257.112645,43.9487914 L253.674964,47.1415131 L253.674964,55.6771568 C253.674964,56.4590478 253.058775,57.0780449 252.280432,57.0780449 L242.486283,57.0780449 C241.70794,57.0780449 241.091751,56.4590478 241.091751,55.6771568 L241.091751,5.24518563 C241.091751,4.4632946 241.70794,3.84429754 242.486283,3.84429754 L252.280432,3.84429754 C253.058775,3.84429754 253.674964,4.4632946 253.674964,5.24518563 L253.674964,33.4909989 L264.02044,22.2187366 C264.960938,21.2087941 265.512264,20.9807425 266.74464,20.9807425 L278.257631,20.9807425 C279.814317,20.9807425 280.203488,22.3816306 279.198129,23.3264156 L265.836573,35.836672 L279.619731,54.9278446 C280.333212,55.8726295 280.171057,57.1106237 278.517078,57.1106237 L267.231105,57.1106237 C265.998728,57.1106237 265.447402,56.7196782 264.831214,55.7097356 L257.112645,43.9487914 L257.112645,43.9487914 Z" id="Shape"></path>
            </g>
        </g>
    </g>
</svg>