<?xml version="1.0" encoding="UTF-8" standalone="no"?>
<svg width="301px" height="145px" viewBox="0 0 301 145" version="1.1" xmlns="http://www.w3.org/2000/svg" xmlns:xlink="http://www.w3.org/1999/xlink" xmlns:sketch="http://www.bohemiancoding.com/sketch/ns">
    <!-- Generator: Sketch 3.0.4 (8053) - http://www.bohemiancoding.com/sketch -->
    <title>yandex</title>
    <desc>Created with Sketch.</desc>
    <defs>
        <path id="path-1" d="M0.03177109,-0.122359348 L227.457706,-0.122359348 L227.457706,89.5183105 L0.03177109,89.5183105 L0.03177109,-0.122359348 Z"></path>
    </defs>
    <g id="Page-1" stroke="none" stroke-width="1" fill="none" fill-rule="evenodd" sketch:type="MSPage">
        <g id="yandex_eng_logo" sketch:type="MSLayerGroup" transform="translate(4.120252, 24.969952)">
            <path d="M100.099585,33.843748 C94.8944212,33.843748 89.4673895,37.6443035 89.4673895,37.6443035 L89.4673895,35.2008244 C89.4673895,34.6658333 89.2534642,34.4513072 88.7181213,34.4513072 L82.0747864,34.4513072 C81.538914,34.4513072 81.2174965,34.7733612 81.2174965,35.2008244 L81.2174965,87.2898873 C81.2174965,87.8269971 81.4324808,88.1490512 81.9678237,88.1490512 L88.7181213,88.1490512 C89.145972,88.1490512 89.4673895,87.8269971 89.4673895,87.2898873 L89.4673895,42.7034123 C89.4673895,42.7034123 92.6005485,40.7175889 96.4056661,40.7175889 C100.028629,40.7175889 102.889086,42.5159006 102.889086,46.2052203 L102.889086,87.2898873 C102.889086,87.8269971 103.209975,88.1490512 103.745847,88.1490512 L110.388123,88.1490512 C110.923995,88.1490512 111.137921,87.7199989 111.137921,87.2898873 L111.137921,43.8703285 C111.137921,37.3307246 107.118878,33.843748 100.099585,33.843748" id="Fill-1" fill="#0A0B09" sketch:type="MSShapeGroup"></path>
            <path d="M128.115861,61.6511016 C128.115861,50.7187441 131.314681,39.8933849 137.846287,39.8933849 C140.058085,39.8933849 142.183571,40.6217143 144.275697,42.2844242 L144.275697,80.7995449 C142.639486,81.6894311 140.580719,82.5109867 138.356743,82.5109867 C131.254316,82.5109867 128.115861,74.0840825 128.115861,61.6511016 L128.115861,61.6511016 Z M151.776322,7.71552492 L145.132987,7.71552492 C144.597644,7.71552492 144.275697,8.03704927 144.275697,8.46610152 L144.275697,34.7442281 C141.725537,33.7653533 139.4036,33.2483718 137.526988,33.2483718 C126.737526,33.2483718 119.330626,43.5657544 119.330626,63.4059783 C119.330626,80.402804 126.535779,89.5183105 135.938963,89.5183105 C139.902936,89.5183105 143.174299,87.2464524 145.569839,85.1154928 L147.02019,87.5748627 C147.264827,87.9996774 147.464985,88.145873 147.956378,88.145873 L151.776322,88.1490512 C152.204702,88.1490512 152.526649,87.8269971 152.526649,87.2898873 L152.526649,8.46610152 C152.526649,7.92952135 152.311665,7.71552492 151.776322,7.71552492 L151.776322,7.71552492 Z" id="Fill-2" fill="#0A0B09" sketch:type="MSShapeGroup"></path>
            <path d="M176.69227,56.4563911 C174.245366,56.4563911 169.792118,57.0613018 169.792118,57.0613018 C169.792118,57.0613018 169.851424,55.285767 170.064291,53.5822707 C171.022189,44.5335056 173.179446,39.9564185 176.904077,39.9564185 C180.143139,39.9564185 182.360762,44.6394444 182.893986,52.836991 C182.99936,54.5404874 182.99936,56.4563911 182.99936,56.4563911 L176.69227,56.4563911 L176.69227,56.4563911 Z M177.224435,33.3558997 C166.161212,33.3558997 160.700291,47.8335001 160.700291,63.5887227 C160.700291,80.0796906 168.488445,89.3228534 178.501633,89.3228534 C182.904047,89.3228534 187.284751,87.5896942 190.157917,85.9926663 C190.597946,85.7479476 190.677374,85.402587 190.572,84.9767129 L189.731654,81.4923849 C189.62681,81.0665108 189.412885,80.8541034 188.880719,80.8541034 C188.646142,80.8541034 185.017354,81.9161402 181.485998,81.9161402 C173.291174,81.9161402 169.533184,74.6291378 169.533184,64.9510961 L169.533184,62.5981947 C169.533184,62.5981947 173.606238,63.162319 176.053141,63.162319 L191.512954,63.162319 L191.512954,58.6922301 C191.512954,42.1922574 185.736969,33.3558997 177.224435,33.3558997 L177.224435,33.3558997 Z" id="Fill-3" fill="#0A0B09" sketch:type="MSShapeGroup"></path>
            <g id="Group-8">
                <mask id="mask-2" sketch:name="Clip 5" fill="white">
                    <use xlink:href="#path-1"></use>
                </mask>
                <g id="Clip-5"></g>
                <path d="M62.6854197,79.7089047 C60.7828609,81.547473 58.5027557,82.5109867 56.4514023,82.5109867 C54.4005784,82.5109867 52.8157305,81.5633639 51.5443574,79.8079575 C49.9976349,77.6722307 49.2759016,74.3838894 49.2759016,70.7401234 C49.2759016,64.9770511 51.4024466,59.0635457 55.9112937,59.0635457 C58.1421538,59.0635457 60.5932934,59.790286 62.6854197,61.454585 L62.6854197,79.7089047 L62.6854197,79.7089047 Z M68.6001376,40.1222127 C66.1437028,35.2802785 61.7672352,33.1641504 56.7553457,33.1641504 C53.5353457,33.1641504 48.5102183,34.3956893 45.1536027,35.9047879 C44.4970001,36.1998276 44.0813284,36.4593777 44.0813284,36.9768889 C44.0813284,37.2841115 44.2343591,37.6368878 44.4027459,37.9419916 L46.664318,42.7849852 C46.8978355,43.3316296 47.2706163,43.4566374 47.5787959,43.4566374 C47.9134514,43.4566374 48.1850942,43.2982588 48.485331,43.1054502 C51.7593418,41.0126286 54.1575296,39.8621329 56.0558522,39.8621329 C58.5668274,39.8621329 60.2729349,41.5290804 61.324558,44.0350634 C62.3036371,46.3704849 62.6833016,49.5973816 62.6833016,53.3258987 C62.6833016,53.801564 62.6854197,54.4218359 62.6854197,54.4218359 C60.6224169,53.1304415 57.0486988,52.4185326 55.2647521,52.4185326 C45.6661763,52.4185326 40.4896066,61.5409252 40.4896066,71.296832 C40.4896066,81.8080826 46.5393517,89.5183105 53.8096361,89.5183105 C57.8588616,89.5183105 61.5241863,87.1410432 63.9790325,84.1440337 C63.9790325,84.1440337 65.2853539,87.2607541 65.4563882,87.6347182 C65.6284816,88.0081525 65.8095768,88.145873 66.3009697,88.145873 L70.1860445,88.1490512 C70.6133657,88.1490512 70.9353127,87.8269971 70.9353127,87.2898873 L70.9353127,57.0734848 C70.9353127,49.6492916 70.5604138,43.9847424 68.6001376,40.1222127 L68.6001376,40.1222127 Z" id="Fill-4" fill="#0A0B09" sketch:type="MSShapeGroup" mask="url(#mask-2)"></path>
                <path d="M226.597768,34.4444212 L220.676696,34.4444212 C220.014798,34.4444212 219.678025,34.7908412 219.50752,35.2400218 C219.132092,36.2247232 216.629589,42.8178262 215.602853,45.5494589 C214.871588,47.5003225 212.901251,53.0885957 212.901251,53.0885957 L212.67197,53.0870066 C212.665086,53.0668782 211.22162,49.0226634 210.44058,46.9965833 C209.808336,45.3545315 206.509967,36.6622506 206.092707,35.5906793 C205.86978,35.0149018 205.620377,34.4444212 204.772088,34.4444212 L198.289198,34.4444212 C197.576466,34.4444212 197.173503,35.22572 197.403314,35.7109199 C197.634184,36.1977088 207.963494,59.7325494 207.963494,59.7325494 C207.963494,59.7325494 196.870618,86.0858925 196.546553,86.6770312 C196.222488,87.2692292 196.629688,88.1453433 197.419729,88.1453433 L203.100929,88.1453433 C204.067829,88.1453433 204.449082,87.638426 204.739258,86.8221673 C205.555775,84.5333589 206.771549,81.3514862 208.493542,76.4332761 C209.633595,73.174068 211.437134,67.4539009 211.437134,67.4539009 L211.635703,67.4539009 C211.635703,67.4539009 213.611865,73.2837147 214.346306,75.1900839 C216.202268,80.0097709 218.577157,86.3062453 218.828678,86.9710114 C219.090789,87.6664998 219.458275,88.1453433 220.12282,88.1453433 L226.565468,88.1453433 C227.203008,88.1453433 227.49742,87.4175436 227.197712,86.7834997 C226.480215,85.272812 220.362162,70.4011192 216.113838,60.6240246 C216.113838,60.6240246 227.140524,36.2835193 227.354979,35.6817867 C227.569964,35.0795245 227.506421,34.4444212 226.597768,34.4444212" id="Fill-6" fill="#0A0B09" sketch:type="MSShapeGroup" mask="url(#mask-2)"></path>
                <path d="M47.2001904,-0.122359348 L39.7313366,-0.122359348 C39.0699684,-0.122359348 38.6569443,0.202343163 38.561631,0.673241259 C38.4668473,1.14625813 27.3612627,35.0186096 26.554277,37.8402903 C25.9818679,39.8404154 24.1158459,46.8922336 23.668403,48.5856658 L19.8060975,38.0373366 C18.8672618,35.134083 9.87233671,9.99585821 9.60863666,8.99208781 C9.46354868,8.44014651 9.20990948,7.7536629 8.24247979,7.7536629 L0.951014628,7.7536629 C0.238283175,7.7536629 -0.165209668,8.53602115 0.0651307346,9.02122099 C0.24834402,9.4094868 13.4190494,44.4598781 18.7396479,57.8494867 L18.7396479,87.2898873 C18.7396479,87.8269971 18.9546323,88.1490512 19.4899752,88.1490512 L26.3959511,88.1490512 C26.8238018,88.1490512 27.1452193,87.8269971 27.1452193,87.2898873 L27.1452193,58.0820224 C31.5804635,45.6898279 47.7821308,1.60974051 47.9584604,1.11606556 C48.1729153,0.512743933 48.1099026,-0.122359348 47.2001904,-0.122359348" id="Fill-7" fill="#D9242A" sketch:type="MSShapeGroup" mask="url(#mask-2)"></path>
            </g>
        </g>
    </g>
</svg>